<svg fill="none" version="1.1" viewBox="0 0 24 24" xmlns="http://www.w3.org/2000/svg">
 <style id="current-color-scheme" type="text/css">.ColorScheme-Text {
  color:#232629;
  }
  .ColorScheme-NegativeText {
  color:#da4453;
  }</style>
 <path class="ColorScheme-NegativeText" stroke="currentColor" stroke-width="1.5" stroke-linecap="round" stroke-linejoin="round" d="m14.61 9.1432-0.32953 8.5712m-4.56 0-0.32953-8.5712m9.4934-3.0571c0.32572 0.049522 0.64953 0.1019 0.97334 0.15809m-0.97334-0.15714-1.0172 13.221a2.1429 2.1428 0 0 1-2.1372 1.978h-7.4591a2.1429 2.1428 0 0 1-2.1372-1.978l-1.0172-13.222m13.768 0a45.818 45.816 0 0 0-3.3124-0.37809m-11.429 0.53522c0.32381-0.056189 0.64763-0.10857 0.97334-0.15714m0 0a45.819 45.818 0 0 1 3.3124-0.37809m7.1429 0v-0.87236c0-1.1238-0.86668-2.0609-1.9905-2.0961a49.49 49.488 0 0 0-3.1619 0c-1.1238 0.035237-1.9905 0.97331-1.9905 2.0961v0.87236m7.1429 0a46.35 46.348 0 0 0-7.1429 0" />
</svg>
