<svg fill="none" viewBox="0 0 24 24" xmlns="http://www.w3.org/2000/svg">
 <style id="current-color-scheme" type="text/css">.ColorScheme-Text {
  color:#232629;}</style>
 <path class="ColorScheme-Text" stroke="currentColor" stroke-width="1.5" stroke-linecap="round" stroke-linejoin="round" d="m14.735 13.806a4.5714 4.5714 0 0 1-4.4495 5.6229v-3.6571m4.4495-1.9657a11.413 11.413 0 0 0 4.6933-9.2343 11.413 11.413 0 0 0-9.2335 4.6933m4.541 4.541a11.372 11.372 0 0 1-4.4503 1.9657m-0.090666-6.5067a4.5714 4.5714 0 0 0-5.6236 4.4495h3.6571m1.9665-4.4495a11.373 11.373 0 0 0-1.9657 4.4495m2.0564 2.0571c-0.07847 0.016-0.15772 0.03124-0.23695 0.04571a11.497 11.497 0 0 1-1.8651-1.8651 11.352 11.352 0 0 1 0.045714-0.23771m-1.7067 1.821a3.4232 3.4232 0 0 0-1.3387 3.2808 3.4232 3.4232 0 0 0 3.2808-1.3394m6.9638-7.7623a1.1429 1.1429 0 1 1-2.2857 0 1.1429 1.1429 0 0 1 2.2857 0z" />
</svg>
