<svg fill="none" version="1.1" viewBox="0 0 24 24" xmlns="http://www.w3.org/2000/svg">
 <style id="current-color-scheme" type="text/css">.ColorScheme-Text {
  color:#232629;}</style>
 <path class="ColorScheme-Text" d="m18.406 13.921v-2.2419a2.8825 2.8825 0 0 0-2.8825-2.8825h-1.2811a0.96081 0.96081 0 0 1-0.96081-0.96081v-1.2811a2.8825 2.8825 0 0 0-2.8825-2.8825h-1.6014m0 10.89h6.4056m-6.4056 2.5622h3.2027m-1.2811-13.452h-4.1636c-0.53038 0-0.96081 0.43045-0.96081 0.96081v14.733c0 0.53038 0.43045 0.96081 0.96081 0.96081h10.89c0.53038 0 0.96081-0.43045 0.96081-0.96081v-8.007a7.6866 7.6866 0 0 0-7.6866-7.6866z" stroke="currentColor" stroke-linecap="round" stroke-linejoin="round" stroke-width="1.5"/>
</svg>
