<svg viewBox="0 0 24 24" xmlns="http://www.w3.org/2000/svg">
 <style id="current-color-scheme" type="text/css">.ColorScheme-Text {
  color:#232629;}</style>
 <path class="ColorScheme-Text" stroke="currentColor" stroke-width="1.5" stroke-linecap="round" stroke-linejoin="round" d="m19.714 8.1429-1.9286-1.1254m1.9286 1.1254v1.9286m0-1.9286-1.9286 1.1254m-13.5-1.1254 1.9286-1.1254m-1.9286 1.1254 1.9286 1.1254m-1.9286-1.1254v1.9286m7.7143 2.5714 1.9286-1.1254m-1.9286 1.1254-1.9286-1.1254m1.9286 1.1254v1.9286m0 5.7857 1.9286-1.1254m-1.9286 1.1254v-1.9286m0 1.9286-1.9286-1.1254m0-14.464 1.9286-1.1246 1.9286 1.1254m5.7857 9.1603v1.9286l-1.9286 1.1254m-11.571 0-1.9286-1.1254v-1.9286" />
</svg>
