<svg width="24" height="24" version="1.1" viewBox="0 0 24 24" xmlns="http://www.w3.org/2000/svg">
    <style id="current-color-scheme" type="text/css">.ColorScheme-Text {
        color:#232629;}</style>
 <g class="ColorScheme-Text" fill="none" stroke="currentColor" stroke-width="1.5" stroke-linecap="round" stroke-linejoin="round">
  <ellipse id="_Path_" cx="5.3633" cy="15.931" rx=".47677" ry=".4914" />
  <path d="m1.9877 9.5429h2.8606v2.9484h-2.8606z"/>
  <path d="m4.8483 9.5429h2.8607v2.9484h-2.8607z"/>
  <path d="m7.709 9.5429h2.8607v2.9484h-2.8607z"/>
  <path d="m10.57 9.5429h2.8606v2.9484h-2.8606z"/>
  <path d="m4.8483 6.5945h2.8607v2.9484h-2.8607z"/>
  <path d="m7.709 6.5945h2.8607v2.9484h-2.8607z"/>
  <path d="m10.57 6.5945h2.8606v2.9484h-2.8606z"/>
  <path d="m10.57 3.6461h2.8606v2.9484h-2.8606z"/>
  <path d="m13.43 9.5429h2.8607v2.9484h-2.8607z"/>
  <path d="m22.966 11.509s-1.6687-1.1007-2.8606-0.4914a3.2897 3.3907 0 0 0-1.4303-2.457 3.4709 3.5774 0 0 0-0.55306 2.8305 0.95355 0.9828 0 0 1-0.95355 1.1007h-16.134c0 6.1425 3.6521 7.8624 7.1516 7.8624a13.121 13.523 0 0 0 11.5-6.8796 4.4626 4.5995 0 0 0 3.2802-1.9656z" />
 </g>
</svg>
