<svg fill="none" version="1.1" viewBox="0 0 24 24" xmlns="http://www.w3.org/2000/svg">
 <style id="current-color-scheme" type="text/css">.ColorScheme-Text {
  color:#232629;
  }
  .ColorScheme-NegativeText {
  color:#da4453;
  }</style>
 <path class="ColorScheme-NegativeText" d="m14.423 9.2936-0.30601 8.1195m-4.2346 0-0.30601-8.1195m8.8159-2.896c0.30248 0.046913 0.60318 0.09653 0.90388 0.14976m-0.90388-0.14886-0.9446 12.524a1.99 2.0299 0 0 1-1.9847 1.8738h-6.9268a1.99 2.0299 0 0 1-1.9847-1.8738l-0.9446-12.525m12.785 0a42.548 43.402 0 0 0-3.076-0.35817m-10.613 0.50702c0.3007-0.053228 0.60141-0.10285 0.90388-0.14886m0 0a42.549 43.403 0 0 1 3.076-0.35817m6.6331 0v-0.82639c0-1.0646-0.80483-1.9523-1.8484-1.9856a45.958 46.88 0 0 0-2.9362 0c-1.0436 0.03338-1.8484 0.92202-1.8484 1.9856v0.82639m6.6331 0a43.042 43.906 0 0 0-6.6331 0" stroke="currentColor" stroke-linecap="round" stroke-linejoin="round" stroke-width="1.4069"/>
</svg>
