<svg fill="none" version="1.1" viewBox="0 0 24 24" xmlns="http://www.w3.org/2000/svg">
 <style id="current-color-scheme" type="text/css">.ColorScheme-Text {
  color:#232629;}</style>
 <path class="ColorScheme-Text" d="m18.28 13.884v-2.1981a2.8262 2.8262 0 0 0-2.8262-2.8262h-1.2561a0.94203 0.94203 0 0 1-0.94203-0.94203v-1.2561a2.8262 2.8262 0 0 0-2.8262-2.8262h-1.5701m0 10.677h6.2804m-6.2804 2.5121h3.1401m-1.2561-13.189h-4.0822c-0.52001 0-0.94203 0.42204-0.94203 0.94203v14.445c0 0.52001 0.42204 0.94203 0.94203 0.94203h10.677c0.52001 0 0.94203-0.42204 0.94203-0.94203v-7.8505a7.5364 7.5364 0 0 0-7.5364-7.5364z" stroke="currentColor" stroke-linecap="round" stroke-linejoin="round" stroke-width="1.4707"/>
</svg>
