<svg fill="none" version="1.1" viewBox="0 0 24 24" xmlns="http://www.w3.org/2000/svg">
 <style id="current-color-scheme" type="text/css">.ColorScheme-Text {
  color:#232629;}</style>
 <path class="ColorScheme-Text" d="m8.9361 11.959a0.34043 0.34043 0 1 1-0.68085 0 0.34043 0.34043 0 0 1 0.68085 0zm0 0h-0.34043m3.7446 0a0.34044 0.34044 0 1 1-0.68085 0 0.34044 0.34044 0 0 1 0.68085 0zm0 0h-0.34043m3.7446 0a0.34043 0.34043 0 1 1-0.68085 0 0.34043 0.34043 0 0 1 0.68085 0zm0 0h-0.34043m4.766 0a8.1702 8.1702 0 1 1-16.34 0 8.1702 8.1702 0 0 1 16.34 0z" stroke="currentColor" stroke-linecap="round" stroke-linejoin="round" stroke-width="1.6596"/>
</svg>
